<?xml version="1.0" encoding="utf-8"?>
<!-- Generator: Adobe Illustrator 26.0.2, SVG Export Plug-In . SVG Version: 6.00 Build 0)  -->
<svg version="1.1" id="Layer_1" xmlns="http://www.w3.org/2000/svg" xmlns:xlink="http://www.w3.org/1999/xlink" x="0px" y="0px"
	 viewBox="0 0 22 22" width="25" height="25" style="enable-background:new 0 0 22 22;" xml:space="preserve">
<style type="text/css">
	.st0{fill:#FFFFFF;}
</style>
<path class="st0" d="M21.7,17c0-0.9-0.4-1.7-1-2.4c-0.6-0.6-1.5-1-2.4-1c-2.7,0-6.6,0-9.3,0c-0.9,0-1.7,0.4-2.4,1
	c-0.6,0.6-1,1.5-1,2.4c0,2.2,0,3.3,0,3.3h16C21.7,20.3,21.7,19.2,21.7,17z M4.3,17.7h-4c0,0,0-1.1,0-3.3c0-0.9,0.4-1.7,1-2.4
	c0.6-0.6,1.5-1,2.4-1h5.4c0.3,0.5,0.7,1,1.1,1.3H9c-2.6,0-4.7,2.1-4.7,4.7V17.7z M13.7,4.3c2.2,0,4,1.8,4,4s-1.8,4-4,4s-4-1.8-4-4
	S11.5,4.3,13.7,4.3z M8.5,9.7c-0.1,0-0.1,0-0.2,0c-2.2,0-4-1.8-4-4s1.8-4,4-4c1.4,0,2.6,0.7,3.3,1.7C9.7,4.2,8.3,6.1,8.3,8.3
	C8.3,8.8,8.4,9.2,8.5,9.7z"/>
</svg>
