<svg width="24" height="26" viewBox="0 0 24 26" fill="none" xmlns="http://www.w3.org/2000/svg">
<path d="M7.49998 3.12494H16.4998V1.62498H17.2497V0.875H6.75V1.62498H7.49998V3.12494Z" fill="white"/>
<path d="M20.2496 23.5101C20.6855 23.2514 20.9996 22.5652 20.9996 21.7496C20.9996 20.7146 20.4961 19.8746 19.8746 19.8746C19.2531 19.8746 18.7496 20.7146 18.7496 21.7496C18.7496 22.5652 19.0637 23.2514 19.4996 23.5101V24.3745H17.9996V4.125H5.99993V24.3745H4.49996V23.5101C4.93589 23.2514 5.24994 22.5652 5.24994 21.7496C5.24994 20.7146 4.74651 19.8746 4.12497 19.8746C3.50344 19.8746 3 20.7146 3 21.7496C3 22.5652 3.31406 23.2514 3.74998 23.5101V24.3745H3V25.1245H20.9996V24.3745H20.2496V23.5101ZM7.49989 5.62506H16.4997V7.12502H7.49989V5.62506ZM7.49989 8.62499H16.4997V10.1249H7.49989V8.62499ZM7.49989 11.6249H16.4997V13.1249H7.49989V11.6249ZM7.49989 14.6248H16.4997V16.1248H7.49989V14.6248ZM7.49989 17.6248H16.4997V19.1247H7.49989V17.6248ZM7.49989 20.6247H16.4997V22.1247H7.49989V20.6247Z" fill="white"/>
</svg>
