<svg width="24" height="24" viewBox="0 0 24 24" fill="none" xmlns="http://www.w3.org/2000/svg">
<path opacity="0.50951" fill-rule="evenodd" clip-rule="evenodd" d="M10.1995 5.71799C10.2492 5.81907 10.2819 5.92732 10.2967 6.03861L10.5681 10.0753L10.7029 12.1043C10.7043 12.3129 10.737 12.5202 10.8 12.7195C10.9628 13.1061 11.3543 13.3519 11.7803 13.3347L18.2712 12.9101C18.5523 12.9055 18.8237 13.0106 19.0258 13.2024C19.1942 13.3622 19.3029 13.5712 19.3371 13.7961L19.3486 13.9326C19.08 17.6522 16.3483 20.7546 12.6366 21.5555C8.92496 22.3564 5.11883 20.6646 3.28469 17.3987C2.75592 16.4499 2.42565 15.407 2.31326 14.3312C2.26631 14.0128 2.24564 13.6911 2.25144 13.3694C2.24565 9.38153 5.0853 5.9339 9.06029 5.10276C9.53868 5.02826 10.0077 5.28154 10.1995 5.71799Z" fill="white"/>
<path fill-rule="evenodd" clip-rule="evenodd" d="M12.8474 2.2508C17.2933 2.36391 21.0299 5.56113 21.7492 9.86753L21.7423 9.89931L21.7227 9.94548L21.7255 10.0723C21.7153 10.2404 21.6504 10.4021 21.5386 10.5327C21.4221 10.6687 21.263 10.7614 21.0878 10.7974L20.9809 10.812L13.4921 11.2973C13.2429 11.3218 12.9949 11.2415 12.8097 11.0763C12.6553 10.9386 12.5566 10.7527 12.5287 10.5524L12.0261 3.07399C12.0173 3.04871 12.0173 3.02129 12.0261 2.99601C12.0329 2.78987 12.1237 2.59502 12.278 2.45499C12.4324 2.31496 12.6374 2.24142 12.8474 2.2508Z" fill="white"/>
</svg>
