<svg xmlns="http://www.w3.org/2000/svg" width="16.525" height="16.597" viewBox="0 0 16.525 16.597"><defs><style>.a{fill:#24cbd3;}</style></defs><path class="a" d="M105.716.559,105.7.541a2.068,2.068,0,0,0-2.922.132L95.384,8.764a.713.713,0,0,0-.15.255l-.869,2.605a.991.991,0,0,0,.938,1.3h0a.987.987,0,0,0,.4-.084l2.516-1.1a.713.713,0,0,0,.241-.173l7.391-8.091A2.07,2.07,0,0,0,105.716.559ZM96.03,11.144l.51-1.529.043-.047.966.883-.043.047Zm8.765-8.625L98.512,9.4l-.966-.883,6.283-6.878a.641.641,0,0,1,.906-.041l.02.018A.642.642,0,0,1,104.795,2.519Z" transform="translate(-89.863 0)"/><path class="a" d="M15.176,37.315a.714.714,0,0,0-.714.714v6.058A1.817,1.817,0,0,1,12.648,45.9H4a1.817,1.817,0,0,1-1.815-1.815V35.508A1.817,1.817,0,0,1,4,33.693h6.26a.714.714,0,1,0,0-1.427H4A3.246,3.246,0,0,0,.757,35.508v8.578A3.246,3.246,0,0,0,4,47.328h8.649a3.246,3.246,0,0,0,3.242-3.242V38.028A.714.714,0,0,0,15.176,37.315Z" transform="translate(-0.757 -30.731)"/></svg>