<?xml version="1.0" encoding="UTF-8"?>
<svg id="Layer_1" xmlns="http://www.w3.org/2000/svg" version="1.1" viewBox="0 0 24 24">
  <!-- Generator: Adobe Illustrator 29.2.1, SVG Export Plug-In . SVG Version: 2.1.0 Build 116)  -->
  <defs>
    <style>
      .st0 {
        fill: #fff;
      }
    </style>
  </defs>
  <path class="st0" d="M63.8,12.4v1c0,.1,0,.2-.2.2l-1.3.4c-.2.8-.5,1.6-1,2.3l.6,1.3c0,.1,0,.2,0,.3l-1.4,1.4c0,0-.2,0-.3,0l-1.3-.6c-.7.4-1.5.8-2.3,1l-.4,1.3c0,.1-.1.2-.2.2h-2c-.1,0-.2,0-.2-.2l-.4-1.3c-.8-.2-1.6-.5-2.3-1l-1.3.6c-.1,0-.2,0-.3,0l-1.4-1.4c0,0,0-.2,0-.3l.6-1.3c-.4-.7-.8-1.5-1-2.3l-1.3-.4c-.1,0-.2-.1-.2-.2v-1c0-.1.1-.3.3-.3h3.3c.1,0,.3.1.3.3,0,2.8,2.2,5,5,5s5-2.2,5-5,.1-.3.3-.3h3.3c.1,0,.3.1.3.3ZM52.2,12.1c-.1,0-.3.1-.3.3,0,1.7,1.4,3.1,3.1,3.1s3.1-1.4,3.1-3.1-.1-.3-.3-.3h-5.7ZM46.2,10.5c0-.1.1-.3.3-.3h2V3.6h5.6v6.7h.5V2.2l3.3,1.9v6.2h.5V3.9s0-1.7,0-1.7l3.3,1.9v6.2h2c.1,0,.3.1.3.3s-.1.3-.3.3h-17.2c-.1,0-.3-.1-.3-.3h0ZM49.4,10.3h.5v-3.4s2.6,0,2.6,0v3.4h.5v-3.7c0-.1-.1-.3-.3-.3h-3.1c-.1,0-.3.1-.3.3v3.7ZM52.5-1.7h.2v-1.1h-3.1v1.1h2.8ZM52.3-1.2h-2.1l-.7,4.2h3.5l-.7-4.2Z"/>
  <g>
    <rect class="st0" x="11.4" y="14" width="5.5" height="1.4"/>
    <rect class="st0" x="11.4" y="11.7" width="5.5" height="1.4"/>
    <polygon class="st0" points="21.1 7.1 21.1 7.2 20.9 7.2 14.4 .7 14.4 .5 14.4 .5 21.1 7.1"/>
    <path class="st0" d="M14.4,7.1V.5H4.4c-.8,0-1.4.6-1.4,1.4v20.2c0,.8.6,1.4,1.4,1.4h15.3c.8,0,1.4-.6,1.4-1.4V7.1h-6.7ZM18,19.1H6.2v-8.5h11.8v8.5Z"/>
    <rect class="st0" x="11.4" y="16.4" width="5.5" height="1.4"/>
    <rect class="st0" x="7.2" y="14" width="3.2" height="1.4"/>
    <rect class="st0" x="7.2" y="11.7" width="3.2" height="1.4"/>
    <rect class="st0" x="7.2" y="16.4" width="3.2" height="1.4"/>
    <path class="st0" d="M7.2,11.7v1.4h3.2v-1.4h-3.2Z"/>
  </g>
</svg>