<svg width="24" height="24" viewBox="0 0 24 24" fill="none" xmlns="http://www.w3.org/2000/svg">
<path d="M20.786 15.2101V16.1934C20.786 16.3079 20.7126 16.4077 20.605 16.4429L19.2616 16.8783C19.0777 17.6904 18.7587 18.4594 18.3116 19.1677L18.9534 20.4308C19.0053 20.5316 18.9857 20.6539 18.9055 20.7341L17.5201 22.1195C17.4399 22.1988 17.3176 22.2183 17.2168 22.1675L15.9537 21.5256C15.2463 21.9728 14.4773 22.2917 13.6643 22.4757L13.2299 23.819C13.1946 23.9266 13.0939 24 12.9804 24H11.0207C10.9072 24 10.8064 23.9266 10.7712 23.819L10.3358 22.4757C9.52275 22.2907 8.75374 21.9718 8.04637 21.5256L6.78326 22.1675C6.68249 22.2193 6.56019 22.1998 6.47997 22.1195L5.09556 20.7341C5.01631 20.6539 4.99674 20.5316 5.04762 20.4308L5.68944 19.1677C5.24231 18.4594 4.92336 17.6904 4.73942 16.8783L3.39608 16.4429C3.28846 16.4077 3.21508 16.3069 3.21508 16.1934V15.2101C3.21508 15.0653 3.33249 14.9479 3.4773 14.9479H6.73137C6.87617 14.9479 6.99359 15.0653 6.99359 15.2101C6.99359 17.9731 9.238 20.2205 11.9972 20.2205C14.7601 20.2205 17.0075 17.9731 17.0075 15.2101C17.0075 15.0653 17.1249 14.9479 17.2697 14.9479H20.5238C20.6686 14.9479 20.786 15.0653 20.786 15.2101ZM9.14899 14.9479C9.00419 14.9479 8.88678 15.0653 8.88678 15.2101C8.88678 16.9292 10.282 18.3272 11.9971 18.3272C13.7161 18.3272 15.1142 16.9291 15.1142 15.2101C15.1142 15.0653 14.9967 14.9479 14.8519 14.9479H9.14899ZM3.1543 13.3757C3.1543 13.2309 3.2717 13.1135 3.41651 13.1135H5.38013L5.38111 6.42021H11.0089V13.1135H11.5343V5.03012L14.8109 6.9233V13.1136H15.3363L15.3353 6.77177V5.02926L18.6187 6.92343V13.1137H20.5823C20.7271 13.1137 20.8445 13.2311 20.8445 13.3759C20.8445 13.5207 20.7271 13.6391 20.5823 13.6391H3.41751C3.27173 13.6382 3.15432 13.5208 3.15432 13.3759L3.1543 13.3757ZM6.38683 13.1135H6.91224L6.91126 9.69583H9.47755V13.1135H10.003V9.43384C10.003 9.28904 9.88555 9.17065 9.74074 9.17065L6.64897 9.17162C6.50417 9.17162 6.38676 9.28903 6.38676 9.43482L6.38683 13.1135ZM9.48938 1.13885H9.73691V0H6.65315V1.13885H9.48938ZM9.26435 1.66426H7.11776L6.45345 5.89491H9.92969L9.26435 1.66426Z" fill="white"/>
</svg>
