<svg width="17" height="20" viewBox="0 0 17 20" fill="none" xmlns="http://www.w3.org/2000/svg">
<path fill-rule="evenodd" clip-rule="evenodd" d="M14.0125 2.62467C12.7503 0.987021 10.6254 0 8.5452 0H8.45575C6.41935 0 4.36105 0.941696 3.077 2.51187C2.2133 3.58854 1.7939 4.68834 1.7939 6.37029V6.79634C1.7939 8.05229 1.48385 8.79254 0.73049 9.64559C0.1779 10.2741 0 11.0808 0 11.956C0 12.8302 0.28822 13.6601 0.863665 14.3339C1.616 15.1417 2.67845 15.6573 3.76375 15.747C5.33505 15.9262 6.90635 15.9937 8.5005 15.9937C10.0937 15.9937 11.666 15.8809 13.2373 15.747C14.3216 15.6573 15.384 15.1417 16.1373 14.3339C16.7127 13.6601 17 12.8302 17 11.956C17 11.0808 16.8231 10.2741 16.2695 9.64559C15.539 8.79254 15.2071 8.05229 15.2071 6.79634V6.37029C15.2071 4.73264 14.8314 3.67919 14.0125 2.62467ZM10.5092 17.2279C10.0093 17.1221 6.9631 17.1221 6.4632 17.2279C6.0358 17.3266 5.57365 17.5572 5.57365 18.0608C5.5985 18.5402 5.8798 18.9653 6.26935 19.2342C6.77225 19.628 7.3636 19.8767 7.9828 19.9664C8.31275 20.0117 8.6487 20.0107 8.99055 19.9664C9.60875 19.8767 10.2001 19.628 10.704 19.2352C11.0926 18.9653 11.3739 18.5402 11.3987 18.0608C11.3987 17.5572 10.9366 17.3266 10.5092 17.2279Z" fill="#AFB4BD"/>
</svg>
