<svg xmlns="http://www.w3.org/2000/svg" width="9.348" height="12.802" viewBox="0 0 9.348 12.802"><defs><style>.a{fill:#999ea3;}</style></defs><g transform="translate(0 0)"><path class="a" d="M172.289,294.5a.375.375,0,0,0,.375-.375v-1.554a.375.375,0,1,0-.75,0v1.554A.375.375,0,0,0,172.289,294.5Zm0,0" transform="translate(-167.616 -284.893)"/><path class="a" d="M8.972,4.114H7.2V2.287A2.417,2.417,0,0,0,4.673,0,2.417,2.417,0,0,0,2.15,2.287V4.114H.375A.375.375,0,0,0,0,4.489v4.8A3.521,3.521,0,0,0,3.516,12.8H5.831A3.521,3.521,0,0,0,9.347,9.286v-4.8a.375.375,0,0,0-.375-.375ZM2.9,2.287A1.67,1.67,0,0,1,4.674.75,1.67,1.67,0,0,1,6.447,2.287V4.114H2.9Zm5.7,7a2.77,2.77,0,0,1-2.766,2.766H3.516A2.77,2.77,0,0,1,.75,9.286V4.864H8.6Zm0,0"/></g></svg>