<svg width="24" height="24" viewBox="0 0 24 24" fill="none" xmlns="http://www.w3.org/2000/svg">
<path d="M8.12891 16.5779C9.17442 17.4641 10.5247 17.9985 12.0015 17.9985C15.1428 17.9985 17.7214 15.5746 17.9793 12.499H12.2125L8.12891 16.5779Z" fill="white"/>
<path d="M24.0047 13.9246V10.0801L21.1963 9.61125C20.976 8.76734 20.6431 7.96093 20.1977 7.20141L21.848 4.87595L19.1287 2.15667L16.808 3.81168C16.0484 3.36628 15.2374 3.02872 14.3934 2.80836L13.9293 0H10.0801L9.61125 2.80836C8.76734 3.02872 7.95624 3.36159 7.19672 3.80699L4.87595 2.15667L2.15667 4.87595L3.81168 7.19672C3.36628 7.95624 3.03341 8.76265 2.81305 9.60656L0 10.0754V13.9199L2.80836 14.3887C3.02872 15.2327 3.36159 16.0438 3.80699 16.8033L2.15667 19.1287L4.87595 21.848L7.19672 20.1883C7.95624 20.6384 8.76734 20.9713 9.61125 21.1916L10.0754 24H13.9246L14.3887 21.1916C15.2327 20.9713 16.0438 20.6384 16.8033 20.1883L19.1287 21.848L21.848 19.1287L20.193 16.808C20.6384 16.0484 20.9713 15.2374 21.1916 14.3934L24.0047 13.9246ZM12.0023 19.0021C8.14378 19.0021 5.00254 15.8609 5.00254 12.0023C5.00254 8.14378 8.14378 5.00254 12.0023 5.00254C15.8609 5.00254 19.0021 8.14378 19.0021 12.0023C19.0021 15.8609 15.8609 19.0021 12.0023 19.0021Z" fill="white"/>
<path d="M11.5015 6.02441C8.42586 6.28228 6.00195 8.86091 6.00195 12.0021C6.00195 13.479 6.54112 14.8293 7.42254 15.8748L11.5015 11.7959V6.02441Z" fill="white"/>
<path d="M12.5059 6.02441V11.5005H17.9819C17.7381 8.58898 15.4127 6.26821 12.5059 6.02441Z" fill="white"/>
</svg>
